<mxfile host="Electron" agent="Mozilla/5.0 (Windows NT 10.0; Win64; x64) AppleWebKit/537.36 (KHTML, like Gecko) draw.io/28.0.4 Chrome/138.0.7204.97 Electron/37.2.1 Safari/537.36" version="28.0.4">
  <diagram name="Page-1" id="IyZgBMbgVkwfYmk4ZlEc">
    <mxGraphModel dx="786" dy="564" grid="1" gridSize="10" guides="1" tooltips="1" connect="1" arrows="1" fold="1" page="1" pageScale="1" pageWidth="850" pageHeight="1100" math="0" shadow="0">
      <root>
        <mxCell id="0" />
        <mxCell id="1" parent="0" />
        <mxCell id="QCSkNoM2IWUX6Csv1TjB-1" value="&lt;span style=&quot;color: rgba(0, 0, 0, 0); font-family: monospace; font-size: 0px; text-align: start; text-wrap-mode: nowrap;&quot;&gt;%3CmxGraphModel%3E%3Croot%3E%3CmxCell%20id%3D%220%22%2F%3E%3CmxCell%20id%3D%221%22%20parent%3D%220%22%2F%3E%3CmxCell%20id%3D%222%22%20value%3D%22%22%20style%3D%22image%3Baspect%3Dfixed%3Bhtml%3D1%3Bpoints%3D%5B%5D%3Balign%3Dcenter%3BfontSize%3D12%3Bimage%3Dimg%2Flib%2Fazure2%2Fgeneral%2FFolder_Blank.svg%3B%22%20vertex%3D%221%22%20parent%3D%221%22%3E%3CmxGeometry%20x%3D%2280%22%20y%3D%22210%22%20width%3D%2281.32%22%20height%3D%2266%22%20as%3D%22geometry%22%2F%3E%3C%2FmxCell%3E%3CmxCell%20id%3D%223%22%20value%3D%22CRM%22%20style%3D%22rounded%3D1%3BwhiteSpace%3Dwrap%3Bhtml%3D1%3B%22%20vertex%3D%221%22%20parent%3D%221%22%3E%3CmxGeometry%20x%3D%2295.5%22%20y%3D%22270%22%20width%3D%2250%22%20height%3D%2220%22%20as%3D%22geometry%22%2F%3E%3C%2FmxCell%3E%3C%2Froot%3E%3C%2FmxGraphModel%3E&lt;/span&gt;" style="rounded=1;whiteSpace=wrap;html=1;fillColor=none;strokeColor=default;dashed=1;dashPattern=1 2;" parent="1" vertex="1">
          <mxGeometry x="60.66" y="160" width="120" height="440" as="geometry" />
        </mxCell>
        <mxCell id="QCSkNoM2IWUX6Csv1TjB-2" value="&lt;font style=&quot;font-size: 15px;&quot;&gt;Sources&lt;/font&gt;" style="rounded=1;whiteSpace=wrap;html=1;" parent="1" vertex="1">
          <mxGeometry x="80" y="150" width="80" height="20" as="geometry" />
        </mxCell>
        <mxCell id="QCSkNoM2IWUX6Csv1TjB-14" style="edgeStyle=orthogonalEdgeStyle;rounded=0;orthogonalLoop=1;jettySize=auto;html=1;entryX=0;entryY=0.5;entryDx=0;entryDy=0;fillColor=#e51400;strokeColor=#B20000;" parent="1" source="QCSkNoM2IWUX6Csv1TjB-3" target="QCSkNoM2IWUX6Csv1TjB-8" edge="1">
          <mxGeometry relative="1" as="geometry" />
        </mxCell>
        <mxCell id="QCSkNoM2IWUX6Csv1TjB-15" style="edgeStyle=orthogonalEdgeStyle;rounded=0;orthogonalLoop=1;jettySize=auto;html=1;entryX=0;entryY=0.5;entryDx=0;entryDy=0;fillColor=#e51400;strokeColor=#B20000;" parent="1" source="QCSkNoM2IWUX6Csv1TjB-3" target="QCSkNoM2IWUX6Csv1TjB-9" edge="1">
          <mxGeometry relative="1" as="geometry" />
        </mxCell>
        <mxCell id="QCSkNoM2IWUX6Csv1TjB-17" style="edgeStyle=orthogonalEdgeStyle;rounded=0;orthogonalLoop=1;jettySize=auto;html=1;entryX=0;entryY=0.5;entryDx=0;entryDy=0;fillColor=#e51400;strokeColor=#B20000;" parent="1" source="QCSkNoM2IWUX6Csv1TjB-3" target="QCSkNoM2IWUX6Csv1TjB-10" edge="1">
          <mxGeometry relative="1" as="geometry" />
        </mxCell>
        <mxCell id="QCSkNoM2IWUX6Csv1TjB-3" value="&lt;b&gt;CRM&lt;/b&gt;" style="image;aspect=fixed;html=1;points=[];align=center;fontSize=12;image=img/lib/azure2/general/Folder_Blank.svg;" parent="1" vertex="1">
          <mxGeometry x="78.68" y="252" width="81.32" height="66" as="geometry" />
        </mxCell>
        <mxCell id="QCSkNoM2IWUX6Csv1TjB-24" style="edgeStyle=orthogonalEdgeStyle;rounded=0;orthogonalLoop=1;jettySize=auto;html=1;entryX=0;entryY=0.5;entryDx=0;entryDy=0;fillColor=#e51400;strokeColor=#B20000;" parent="1" source="QCSkNoM2IWUX6Csv1TjB-5" target="QCSkNoM2IWUX6Csv1TjB-11" edge="1">
          <mxGeometry relative="1" as="geometry" />
        </mxCell>
        <mxCell id="QCSkNoM2IWUX6Csv1TjB-25" style="edgeStyle=orthogonalEdgeStyle;rounded=0;orthogonalLoop=1;jettySize=auto;html=1;entryX=0;entryY=0.5;entryDx=0;entryDy=0;fillColor=#e51400;strokeColor=#B20000;" parent="1" source="QCSkNoM2IWUX6Csv1TjB-5" target="QCSkNoM2IWUX6Csv1TjB-13" edge="1">
          <mxGeometry relative="1" as="geometry" />
        </mxCell>
        <mxCell id="QCSkNoM2IWUX6Csv1TjB-26" style="edgeStyle=orthogonalEdgeStyle;rounded=0;orthogonalLoop=1;jettySize=auto;html=1;entryX=0;entryY=0.5;entryDx=0;entryDy=0;fillColor=#e51400;strokeColor=#B20000;" parent="1" source="QCSkNoM2IWUX6Csv1TjB-5" target="QCSkNoM2IWUX6Csv1TjB-12" edge="1">
          <mxGeometry relative="1" as="geometry" />
        </mxCell>
        <mxCell id="QCSkNoM2IWUX6Csv1TjB-5" value="&lt;b&gt;ERP&lt;/b&gt;" style="image;aspect=fixed;html=1;points=[];align=center;fontSize=12;image=img/lib/azure2/general/Folder_Blank.svg;" parent="1" vertex="1">
          <mxGeometry x="78.68" y="472" width="81.32" height="66" as="geometry" />
        </mxCell>
        <mxCell id="QCSkNoM2IWUX6Csv1TjB-6" value="" style="rounded=1;whiteSpace=wrap;html=1;fillColor=none;" parent="1" vertex="1">
          <mxGeometry x="220" y="200" width="150" height="400" as="geometry" />
        </mxCell>
        <mxCell id="QCSkNoM2IWUX6Csv1TjB-7" value="&lt;font style=&quot;font-size: 16px;&quot;&gt;Bronze Layer&lt;/font&gt;" style="rounded=1;whiteSpace=wrap;html=1;fillColor=#ffe6cc;strokeColor=#d79b00;" parent="1" vertex="1">
          <mxGeometry x="220" y="160" width="150" height="30" as="geometry" />
        </mxCell>
        <mxCell id="B942g5YHBhDXZQFOpNZV-10" style="edgeStyle=orthogonalEdgeStyle;rounded=0;orthogonalLoop=1;jettySize=auto;html=1;exitX=1;exitY=0.5;exitDx=0;exitDy=0;fillColor=#ffe6cc;strokeColor=#d79b00;" parent="1" source="QCSkNoM2IWUX6Csv1TjB-8" target="B942g5YHBhDXZQFOpNZV-3" edge="1">
          <mxGeometry relative="1" as="geometry" />
        </mxCell>
        <mxCell id="QCSkNoM2IWUX6Csv1TjB-8" value="&lt;font style=&quot;font-size: 14px;&quot;&gt;&lt;b&gt;crm_sales_details&lt;/b&gt;&lt;/font&gt;" style="rounded=1;whiteSpace=wrap;html=1;fillColor=#ffe6cc;strokeColor=#d79b00;" parent="1" vertex="1">
          <mxGeometry x="230" y="220" width="130" height="30" as="geometry" />
        </mxCell>
        <mxCell id="B942g5YHBhDXZQFOpNZV-11" style="edgeStyle=orthogonalEdgeStyle;rounded=0;orthogonalLoop=1;jettySize=auto;html=1;exitX=1;exitY=0.5;exitDx=0;exitDy=0;entryX=0;entryY=0.5;entryDx=0;entryDy=0;fillColor=#ffe6cc;strokeColor=#d79b00;" parent="1" source="QCSkNoM2IWUX6Csv1TjB-9" target="B942g5YHBhDXZQFOpNZV-4" edge="1">
          <mxGeometry relative="1" as="geometry" />
        </mxCell>
        <mxCell id="QCSkNoM2IWUX6Csv1TjB-9" value="&lt;font style=&quot;font-size: 14px;&quot;&gt;&lt;b&gt;crm_cust_info&lt;/b&gt;&lt;/font&gt;" style="rounded=1;whiteSpace=wrap;html=1;fillColor=#ffe6cc;strokeColor=#d79b00;" parent="1" vertex="1">
          <mxGeometry x="230" y="270" width="130" height="30" as="geometry" />
        </mxCell>
        <mxCell id="B942g5YHBhDXZQFOpNZV-12" style="edgeStyle=orthogonalEdgeStyle;rounded=0;orthogonalLoop=1;jettySize=auto;html=1;exitX=1;exitY=0.5;exitDx=0;exitDy=0;entryX=0;entryY=0.5;entryDx=0;entryDy=0;fillColor=#ffe6cc;strokeColor=#d79b00;" parent="1" source="QCSkNoM2IWUX6Csv1TjB-10" target="B942g5YHBhDXZQFOpNZV-5" edge="1">
          <mxGeometry relative="1" as="geometry" />
        </mxCell>
        <mxCell id="QCSkNoM2IWUX6Csv1TjB-10" value="&lt;font style=&quot;font-size: 14px;&quot;&gt;&lt;b&gt;crm_prd_info&lt;/b&gt;&lt;/font&gt;" style="rounded=1;whiteSpace=wrap;html=1;fillColor=#ffe6cc;strokeColor=#d79b00;" parent="1" vertex="1">
          <mxGeometry x="230" y="320" width="130" height="30" as="geometry" />
        </mxCell>
        <mxCell id="B942g5YHBhDXZQFOpNZV-13" style="edgeStyle=orthogonalEdgeStyle;rounded=0;orthogonalLoop=1;jettySize=auto;html=1;exitX=1;exitY=0.5;exitDx=0;exitDy=0;fillColor=#ffe6cc;strokeColor=#d79b00;" parent="1" source="QCSkNoM2IWUX6Csv1TjB-11" target="B942g5YHBhDXZQFOpNZV-6" edge="1">
          <mxGeometry relative="1" as="geometry" />
        </mxCell>
        <mxCell id="QCSkNoM2IWUX6Csv1TjB-11" value="&lt;font style=&quot;font-size: 14px;&quot;&gt;&lt;b&gt;erp_cust_az12&lt;/b&gt;&lt;/font&gt;" style="rounded=1;whiteSpace=wrap;html=1;fillColor=#ffe6cc;strokeColor=#d79b00;" parent="1" vertex="1">
          <mxGeometry x="230" y="440" width="130" height="30" as="geometry" />
        </mxCell>
        <mxCell id="B942g5YHBhDXZQFOpNZV-14" style="edgeStyle=orthogonalEdgeStyle;rounded=0;orthogonalLoop=1;jettySize=auto;html=1;exitX=1;exitY=0.5;exitDx=0;exitDy=0;fillColor=#ffe6cc;strokeColor=#d79b00;" parent="1" source="QCSkNoM2IWUX6Csv1TjB-12" target="B942g5YHBhDXZQFOpNZV-7" edge="1">
          <mxGeometry relative="1" as="geometry" />
        </mxCell>
        <mxCell id="QCSkNoM2IWUX6Csv1TjB-12" value="&lt;font style=&quot;font-size: 14px;&quot;&gt;&lt;b&gt;erp_loc_a101&lt;/b&gt;&lt;/font&gt;" style="rounded=1;whiteSpace=wrap;html=1;fillColor=#ffe6cc;strokeColor=#d79b00;" parent="1" vertex="1">
          <mxGeometry x="230" y="490" width="130" height="30" as="geometry" />
        </mxCell>
        <mxCell id="B942g5YHBhDXZQFOpNZV-15" style="edgeStyle=orthogonalEdgeStyle;rounded=0;orthogonalLoop=1;jettySize=auto;html=1;exitX=1;exitY=0.5;exitDx=0;exitDy=0;fillColor=#ffe6cc;strokeColor=#d79b00;" parent="1" source="QCSkNoM2IWUX6Csv1TjB-13" target="B942g5YHBhDXZQFOpNZV-8" edge="1">
          <mxGeometry relative="1" as="geometry" />
        </mxCell>
        <mxCell id="QCSkNoM2IWUX6Csv1TjB-13" value="&lt;font style=&quot;font-size: 14px;&quot;&gt;&lt;b&gt;erp_px_cat_g1v2&lt;/b&gt;&lt;/font&gt;" style="rounded=1;whiteSpace=wrap;html=1;fillColor=#ffe6cc;strokeColor=#d79b00;" parent="1" vertex="1">
          <mxGeometry x="230" y="540" width="130" height="30" as="geometry" />
        </mxCell>
        <mxCell id="B942g5YHBhDXZQFOpNZV-1" value="" style="rounded=1;whiteSpace=wrap;html=1;fillColor=none;" parent="1" vertex="1">
          <mxGeometry x="410" y="200" width="150" height="400" as="geometry" />
        </mxCell>
        <mxCell id="B942g5YHBhDXZQFOpNZV-2" value="&lt;font style=&quot;font-size: 16px;&quot;&gt;Silver Layer&lt;/font&gt;" style="rounded=1;whiteSpace=wrap;html=1;fillColor=#f5f5f5;strokeColor=#666666;fontColor=#333333;" parent="1" vertex="1">
          <mxGeometry x="410" y="160" width="150" height="30" as="geometry" />
        </mxCell>
        <mxCell id="B942g5YHBhDXZQFOpNZV-3" value="&lt;font style=&quot;font-size: 14px;&quot;&gt;&lt;b&gt;crm_sales_details&lt;/b&gt;&lt;/font&gt;" style="rounded=1;whiteSpace=wrap;html=1;fillColor=#f5f5f5;strokeColor=#666666;fontColor=#333333;" parent="1" vertex="1">
          <mxGeometry x="420" y="220" width="130" height="30" as="geometry" />
        </mxCell>
        <mxCell id="B942g5YHBhDXZQFOpNZV-4" value="&lt;font style=&quot;font-size: 14px;&quot;&gt;&lt;b&gt;crm_cust_info&lt;/b&gt;&lt;/font&gt;" style="rounded=1;whiteSpace=wrap;html=1;fillColor=#f5f5f5;strokeColor=#666666;fontColor=#333333;" parent="1" vertex="1">
          <mxGeometry x="420" y="270" width="130" height="30" as="geometry" />
        </mxCell>
        <mxCell id="B942g5YHBhDXZQFOpNZV-5" value="&lt;font style=&quot;font-size: 14px;&quot;&gt;&lt;b&gt;crm_prd_info&lt;/b&gt;&lt;/font&gt;" style="rounded=1;whiteSpace=wrap;html=1;fillColor=#f5f5f5;strokeColor=#666666;fontColor=#333333;" parent="1" vertex="1">
          <mxGeometry x="420" y="320" width="130" height="30" as="geometry" />
        </mxCell>
        <mxCell id="B942g5YHBhDXZQFOpNZV-6" value="&lt;font style=&quot;font-size: 14px;&quot;&gt;&lt;b&gt;erp_cust_az12&lt;/b&gt;&lt;/font&gt;" style="rounded=1;whiteSpace=wrap;html=1;fillColor=#f5f5f5;strokeColor=#666666;fontColor=#333333;" parent="1" vertex="1">
          <mxGeometry x="420" y="440" width="130" height="30" as="geometry" />
        </mxCell>
        <mxCell id="B942g5YHBhDXZQFOpNZV-7" value="&lt;font style=&quot;font-size: 14px;&quot;&gt;&lt;b&gt;erp_loc_a101&lt;/b&gt;&lt;/font&gt;" style="rounded=1;whiteSpace=wrap;html=1;fillColor=#f5f5f5;strokeColor=#666666;fontColor=#333333;" parent="1" vertex="1">
          <mxGeometry x="420" y="490" width="130" height="30" as="geometry" />
        </mxCell>
        <mxCell id="B942g5YHBhDXZQFOpNZV-8" value="&lt;font style=&quot;font-size: 14px;&quot;&gt;&lt;b&gt;erp_px_cat_g1v2&lt;/b&gt;&lt;/font&gt;" style="rounded=1;whiteSpace=wrap;html=1;fillColor=#f5f5f5;strokeColor=#666666;fontColor=#333333;" parent="1" vertex="1">
          <mxGeometry x="420" y="540" width="130" height="30" as="geometry" />
        </mxCell>
        <mxCell id="3bHBLxmFd2CSZv-sP0bA-1" value="" style="rounded=1;whiteSpace=wrap;html=1;fillColor=none;" vertex="1" parent="1">
          <mxGeometry x="650" y="270" width="150" height="260" as="geometry" />
        </mxCell>
        <mxCell id="3bHBLxmFd2CSZv-sP0bA-2" value="&lt;font style=&quot;font-size: 16px;&quot;&gt;Gold Layer&lt;/font&gt;" style="rounded=1;whiteSpace=wrap;html=1;fillColor=#fff2cc;strokeColor=#d6b656;" vertex="1" parent="1">
          <mxGeometry x="650" y="230" width="150" height="30" as="geometry" />
        </mxCell>
        <mxCell id="3bHBLxmFd2CSZv-sP0bA-4" value="&lt;span style=&quot;font-size: 14px;&quot;&gt;&lt;b&gt;dim_customers&lt;/b&gt;&lt;/span&gt;" style="rounded=1;whiteSpace=wrap;html=1;fillColor=#fff2cc;strokeColor=#d6b656;" vertex="1" parent="1">
          <mxGeometry x="660" y="385" width="130" height="30" as="geometry" />
        </mxCell>
        <mxCell id="3bHBLxmFd2CSZv-sP0bA-5" value="&lt;font style=&quot;font-size: 14px;&quot;&gt;&lt;b&gt;dim_products&lt;/b&gt;&lt;/font&gt;" style="rounded=1;whiteSpace=wrap;html=1;fillColor=#fff2cc;strokeColor=#d6b656;" vertex="1" parent="1">
          <mxGeometry x="660" y="480" width="130" height="30" as="geometry" />
        </mxCell>
        <mxCell id="3bHBLxmFd2CSZv-sP0bA-10" value="&lt;span style=&quot;font-size: 14px;&quot;&gt;&lt;b&gt;fact_sales&lt;/b&gt;&lt;/span&gt;" style="rounded=1;whiteSpace=wrap;html=1;fillColor=#fff2cc;strokeColor=#d6b656;" vertex="1" parent="1">
          <mxGeometry x="660" y="290" width="130" height="30" as="geometry" />
        </mxCell>
        <mxCell id="3bHBLxmFd2CSZv-sP0bA-16" value="" style="endArrow=classic;html=1;rounded=0;exitX=1;exitY=0.5;exitDx=0;exitDy=0;entryX=0;entryY=0.5;entryDx=0;entryDy=0;fillColor=#f5f5f5;strokeColor=#666666;jumpStyle=gap;" edge="1" parent="1" source="B942g5YHBhDXZQFOpNZV-8" target="3bHBLxmFd2CSZv-sP0bA-5">
          <mxGeometry width="50" height="50" relative="1" as="geometry">
            <mxPoint x="590" y="560" as="sourcePoint" />
            <mxPoint x="640" y="510" as="targetPoint" />
          </mxGeometry>
        </mxCell>
        <mxCell id="3bHBLxmFd2CSZv-sP0bA-17" value="" style="endArrow=classic;html=1;rounded=0;exitX=1;exitY=0.5;exitDx=0;exitDy=0;entryX=0;entryY=0.5;entryDx=0;entryDy=0;fillColor=#f5f5f5;strokeColor=#666666;jumpStyle=gap;" edge="1" parent="1" source="B942g5YHBhDXZQFOpNZV-5" target="3bHBLxmFd2CSZv-sP0bA-5">
          <mxGeometry width="50" height="50" relative="1" as="geometry">
            <mxPoint x="580" y="390" as="sourcePoint" />
            <mxPoint x="690" y="330" as="targetPoint" />
          </mxGeometry>
        </mxCell>
        <mxCell id="3bHBLxmFd2CSZv-sP0bA-18" value="" style="endArrow=classic;html=1;rounded=0;exitX=1;exitY=0.5;exitDx=0;exitDy=0;entryX=0;entryY=0.5;entryDx=0;entryDy=0;fillColor=#f5f5f5;strokeColor=#666666;jumpStyle=gap;" edge="1" parent="1" source="B942g5YHBhDXZQFOpNZV-7" target="3bHBLxmFd2CSZv-sP0bA-4">
          <mxGeometry width="50" height="50" relative="1" as="geometry">
            <mxPoint x="610" y="410" as="sourcePoint" />
            <mxPoint x="720" y="350" as="targetPoint" />
          </mxGeometry>
        </mxCell>
        <mxCell id="3bHBLxmFd2CSZv-sP0bA-19" value="" style="endArrow=classic;html=1;rounded=0;exitX=1;exitY=0.5;exitDx=0;exitDy=0;entryX=0;entryY=0.5;entryDx=0;entryDy=0;fillColor=#f5f5f5;strokeColor=#666666;jumpStyle=gap;" edge="1" parent="1" source="B942g5YHBhDXZQFOpNZV-6" target="3bHBLxmFd2CSZv-sP0bA-4">
          <mxGeometry width="50" height="50" relative="1" as="geometry">
            <mxPoint x="590" y="400" as="sourcePoint" />
            <mxPoint x="700" y="340" as="targetPoint" />
          </mxGeometry>
        </mxCell>
        <mxCell id="3bHBLxmFd2CSZv-sP0bA-20" value="" style="endArrow=classic;html=1;rounded=0;exitX=1;exitY=0.5;exitDx=0;exitDy=0;entryX=0;entryY=0.5;entryDx=0;entryDy=0;fillColor=#f5f5f5;strokeColor=#666666;jumpStyle=gap;" edge="1" parent="1" source="B942g5YHBhDXZQFOpNZV-4" target="3bHBLxmFd2CSZv-sP0bA-4">
          <mxGeometry width="50" height="50" relative="1" as="geometry">
            <mxPoint x="590" y="380" as="sourcePoint" />
            <mxPoint x="700" y="320" as="targetPoint" />
          </mxGeometry>
        </mxCell>
        <mxCell id="3bHBLxmFd2CSZv-sP0bA-21" value="" style="endArrow=classic;html=1;rounded=0;exitX=1;exitY=0.5;exitDx=0;exitDy=0;entryX=0;entryY=0.5;entryDx=0;entryDy=0;fillColor=#f5f5f5;strokeColor=#666666;jumpStyle=gap;" edge="1" parent="1" source="B942g5YHBhDXZQFOpNZV-3" target="3bHBLxmFd2CSZv-sP0bA-10">
          <mxGeometry width="50" height="50" relative="1" as="geometry">
            <mxPoint x="590" y="300" as="sourcePoint" />
            <mxPoint x="700" y="240" as="targetPoint" />
          </mxGeometry>
        </mxCell>
      </root>
    </mxGraphModel>
  </diagram>
</mxfile>
